# xmcd
#
# Track frame offsets:
#	151
#	12939
#	24323
#	37069
#	53099
#	65314
#	75178
#	87073
#	98002
#	113659
#	126259
#	138920
#
# Disc length: 2089 seconds
#
# Revision: 1
# Processed by: cddbd v1.5.2PL0 Copyright (c) Steve Scherf et al.
# Submitted via: audiograbber 1.83.01
#
DISCID=8608270c
DTITLE=John Glenn - Make Mine Country
DYEAR=1900
DGENRE=
TTITLE0=The Girl Who Reads The Same Book All The Time
TTITLE1=If Heartaches Were Wine
TTITLE2=Push The Panic Button
TTITLE3=Don't Say Goodbye
TTITLE4=Think I'll Go Somewhere And Cry Myself To Sleep
TTITLE5=Alone With You
TTITLE6=Jimmy Was A Drinking Kind Of Man
TTITLE7=That's What Makes The Jukebox Play
TTITLE8=If You Can Touch Her At All
TTITLE9=In One Hundred Years
TTITLE10=Up Till Now I've Wanted Everything But You
TTITLE11=Ridin' My Thumb To Mexico
EXTD=
EXTT0=
EXTT1=
EXTT2=
EXTT3=
EXTT4=
EXTT5=
EXTT6=
EXTT7=
EXTT8=
EXTT9=
EXTT10=
EXTT11=
PLAYORDER=
